<?xml version="1.0" standalone="no"?>
<!DOCTYPE svg PUBLIC "-//W3C//DTD SVG 20010904//EN"
 "http://www.w3.org/TR/2001/REC-SVG-20010904/DTD/svg10.dtd">
<svg version="1.0" xmlns="http://www.w3.org/2000/svg"
 width="512.000000pt" height="512.000000pt" viewBox="0 0 512.000000 512.000000"
 preserveAspectRatio="xMidYMid meet">

<g transform="translate(0.000000,512.000000) scale(0.100000,-0.100000)"
fill="#000000" stroke="none">
<path d="M743 4460 c-209 -55 -361 -213 -408 -425 -14 -62 -15 -252 -13 -1625
l3 -1555 22 -66 c59 -171 198 -309 368 -362 l70 -22 1735 0 1735 0 70 22 c173
54 314 195 368 368 l22 70 0 1415 0 1415 -22 70 c-53 170 -191 309 -362 368
l-66 22 -1042 3 -1042 2 -46 70 c-55 83 -116 137 -207 185 -116 61 -149 65
-658 64 -412 0 -462 -2 -527 -19z m1050 -333 c57 -34 47 -18 287 -445 145
-258 202 -350 228 -370 l35 -27 941 -5 c1049 -6 975 0 1048 -76 72 -75 68 -6
68 -1204 0 -1205 5 -1129 -72 -1207 -77 -79 67 -73 -1808 -73 -1875 0 -1731
-6 -1808 73 -78 79 -72 -48 -72 1646 0 1063 3 1528 11 1555 14 51 92 132 144
151 33 12 120 14 495 12 l455 -2 48 -28z m2448 -302 c90 -31 159 -132 159
-232 0 -39 -2 -44 -17 -38 -10 4 -51 15 -92 26 -70 18 -119 19 -937 19 l-862
0 -35 63 c-18 34 -49 88 -66 120 l-33 57 919 0 c800 0 925 -2 964 -15z"/>
</g>
</svg>
