<?xml version="1.0" standalone="no"?>
<!DOCTYPE svg PUBLIC "-//W3C//DTD SVG 20010904//EN"
 "http://www.w3.org/TR/2001/REC-SVG-20010904/DTD/svg10.dtd">
<svg version="1.0" xmlns="http://www.w3.org/2000/svg"
 width="256.000000pt" height="256.000000pt" viewBox="0 0 256.000000 256.000000"
 preserveAspectRatio="xMidYMid meet">

<g transform="translate(0.000000,256.000000) scale(0.100000,-0.100000)"
fill="#000000" stroke="none">
<path d="M360 2114 c-45 -20 -96 -69 -123 -119 -22 -40 -22 -42 -22 -715 0
-673 0 -675 22 -715 12 -22 36 -54 55 -72 69 -66 25 -63 912 -63 543 0 814 3
833 11 36 13 89 64 102 98 21 53 201 792 201 825 0 92 -67 164 -167 181 l-43
7 0 66 c0 79 -22 132 -71 179 -70 66 -78 68 -448 71 l-334 3 -129 107 c-189
158 -153 147 -478 149 -229 2 -281 0 -310 -13z m702 -271 l153 -128 358 -5
359 -5 19 -24 c13 -16 19 -39 19 -77 l0 -53 -672 -3 c-748 -3 -699 1 -776 -72
-48 -45 -56 -65 -102 -247 -23 -90 -43 -166 -46 -168 -3 -3 -3 192 -2 433 l3
438 24 19 c21 18 42 19 267 19 l244 0 152 -127z m1115 -470 c4 -9 -36 -188
-88 -398 l-95 -380 -777 -3 c-644 -2 -778 0 -783 11 -6 17 173 737 189 755 6
8 20 18 32 22 11 5 357 9 768 9 696 1 748 0 754 -16z"/>
</g>
</svg>
